<?xml version="1.0" encoding="UTF-8"?>
<svg id="Layer_2" xmlns="http://www.w3.org/2000/svg" viewBox="0 0 285.01 120.37">
  <defs>
    <style>
      .cls-1 {
        fill: #00895e;
      }

      .cls-2 {
        fill: #002b46;
      }
    </style>
  </defs>
  <g id="Layer_1-2" data-name="Layer_1">
    <g>
      <g>
        <path class="cls-2" d="M92.09,120.32l-9.3-9.38v9.38h-4.28v-29.41h4.28v17.35l8.43-8.39h5.41s-9.68,9.67-9.68,9.67l10.62,10.78h-5.49Z"/>
        <path class="cls-2" d="M156.83,120.36v-20.45h4.28v3.54c.36-1.09,1.03-1.97,2-2.65.97-.67,2.02-1.01,3.13-1.01.67,0,1.23.05,1.67.16l-.97,4.16c-.35-.08-.46-.13-1.17-.11-1.3,0-2.4.53-3.31,1.58-.91,1.05-1.36,2.51-1.36,4.38v10.41h-4.28Z"/>
        <path class="cls-2" d="M101.23,118.91c-1.41-.97-2.4-2.21-2.98-3.72l3.7-1.62c.45,1.01,1.09,1.77,1.91,2.3.82.53,1.75.79,2.81.79s1.9-.18,2.6-.55c.7-.36,1.06-.91,1.06-1.64s-.3-1.26-.91-1.66c-.6-.4-1.53-.75-2.79-1.06l-2.3-.57c-1.53-.38-2.8-1.04-3.81-2-1.01-.96-1.51-2.16-1.51-3.62,0-1.13.33-2.12,1-2.98.67-.85,1.57-1.52,2.7-1.98,1.13-.47,2.36-.7,3.7-.7,1.79,0,3.36.36,4.72,1.08,1.36.72,2.34,1.75,2.94,3.11l-3.62,1.58c-.73-1.48-2.06-2.23-4-2.23-.93,0-1.71.19-2.34.57-.63.38-.94.87-.94,1.47s.24,1.05.72,1.41c.48.36,1.18.67,2.11.92l2.83.72c1.89.48,3.31,1.2,4.28,2.17.97.97,1.45,2.16,1.45,3.57,0,1.21-.35,2.27-1.04,3.19-.69.92-1.64,1.63-2.85,2.13-1.21.5-2.54.75-4,.75-2.21,0-4.02-.48-5.43-1.45Z"/>
        <path class="cls-2" d="M143.55,99.93c-5.64,0-10.21,4.57-10.21,10.21s4.57,10.21,10.21,10.21,10.21-4.57,10.21-10.21-4.57-10.21-10.21-10.21ZM143.55,115.91c-3.23,0-5.86-2.62-5.86-5.86s2.62-5.86,5.86-5.86,5.86,2.62,5.86,5.86-2.62,5.86-5.86,5.86Z"/>
        <path class="cls-2" d="M52.26,111.01c.02-.32.04-.64.03-.97,0-.8-.11-1.58-.29-2.33-1.1-4.5-5.19-7.82-10.03-7.77-4.84.05-8.85,3.46-9.86,7.98-.17.75-.25,1.53-.24,2.34,0,.33.02.65.05.97.12,1.17.44,2.28.93,3.3,1.65,3.49,5.22,5.88,9.33,5.83,4.11-.04,7.63-2.51,9.21-6.03l-4.53.05c-1.16,1.31-2.84,2.14-4.73,2.16s-3.59-.78-4.77-2.06c-.83-.9-1.4-2.03-1.61-3.29l16.49-.17ZM36.11,107.87c.91-2.39,3.2-4.09,5.91-4.12s5.04,1.63,5.99,4l-11.9.13Z"/>
        <path class="cls-2" d="M75.04,111.01c.02-.32.04-.64.03-.97,0-.8-.11-1.58-.29-2.33-1.1-4.5-5.19-7.82-10.03-7.77-4.84.05-8.85,3.46-9.86,7.98-.17.75-.25,1.53-.24,2.34,0,.33.02.65.05.97.12,1.17.44,2.28.93,3.3,1.65,3.49,5.22,5.88,9.33,5.83,4.11-.04,7.63-2.51,9.21-6.03l-4.53.05c-1.16,1.31-2.84,2.14-4.73,2.16s-3.59-.78-4.77-2.06c-.83-.9-1.4-2.03-1.61-3.29l16.49-.17ZM58.89,107.87c.91-2.39,3.2-4.09,5.91-4.12s5.04,1.63,5.99,4l-11.9.13Z"/>
        <path class="cls-2" d="M126.88,95.89c.52-.51,1.35-.76,2.49-.76.93,0,1.7.13,2.3.39v-3.81c-.93-.31-2-.47-3.19-.47-1.95,0-3.54.59-4.79,1.77-1.24,1.18-1.87,2.82-1.87,4.92v1.96h-4.05v3.81h4.05v16.67h4.28v-16.67h5.56v-3.81h-5.56v-1.46c0-1.19.26-2.04.78-2.55Z"/>
        <path class="cls-2" d="M29.46,105.63c0,.93-.09,1.84-.25,2.73-1.28,6.83-7.28,12-14.48,12-8.14,0-14.73-6.59-14.73-14.73s6.6-14.73,14.73-14.73c4.35,0,8.27,1.89,10.96,4.89l-2.75,2.75c-1.99-2.3-4.93-3.76-8.22-3.76-6,0-10.86,4.86-10.86,10.86s4.86,10.86,10.86,10.86c5.05,0,9.3-3.45,10.51-8.13h-9.53v-3.95h13.7c.03.4.05.81.05,1.22Z"/>
        <path class="cls-2" d="M262.56,120.32l-9.3-9.38v9.38h-4.28v-29.41h4.28v17.35l8.43-8.39h5.41s-9.68,9.67-9.68,9.67l10.62,10.78h-5.49Z"/>
        <path class="cls-2" d="M271.69,118.91c-1.41-.97-2.4-2.21-2.98-3.72l3.7-1.62c.45,1.01,1.09,1.77,1.91,2.3.82.53,1.75.79,2.81.79s1.9-.18,2.6-.55c.7-.36,1.06-.91,1.06-1.64s-.3-1.26-.91-1.66c-.6-.4-1.53-.75-2.79-1.06l-2.3-.57c-1.53-.38-2.8-1.04-3.81-2-1.01-.96-1.51-2.16-1.51-3.62,0-1.13.33-2.12,1-2.98.67-.85,1.57-1.52,2.7-1.98,1.13-.47,2.36-.7,3.7-.7,1.79,0,3.36.36,4.72,1.08,1.36.72,2.34,1.75,2.94,3.11l-3.62,1.58c-.73-1.48-2.06-2.23-4-2.23-.93,0-1.71.19-2.34.57-.63.38-.94.87-.94,1.47s.24,1.05.72,1.41c.48.36,1.18.67,2.11.92l2.83.72c1.89.48,3.31,1.2,4.28,2.17.97.97,1.45,2.16,1.45,3.57,0,1.21-.35,2.27-1.04,3.19-.69.92-1.64,1.63-2.85,2.13-1.21.5-2.54.75-4,.75-2.21,0-4.02-.48-5.43-1.45Z"/>
        <path class="cls-2" d="M222.72,111.01c.02-.32.04-.64.03-.97,0-.8-.11-1.58-.29-2.33-1.1-4.5-5.19-7.82-10.03-7.77-4.84.05-8.85,3.46-9.86,7.98-.17.75-.25,1.53-.24,2.34,0,.33.02.65.05.97.12,1.17.44,2.28.93,3.3,1.65,3.49,5.22,5.88,9.33,5.83,4.11-.04,7.63-2.51,9.21-6.03l-4.53.05c-1.16,1.31-2.84,2.14-4.73,2.16s-3.59-.78-4.77-2.06c-.83-.9-1.4-2.03-1.61-3.29l16.49-.17ZM206.57,107.87c.91-2.39,3.2-4.09,5.91-4.12s5.04,1.63,5.99,4l-11.9.13Z"/>
        <path class="cls-2" d="M245.5,111.01c.02-.32.04-.64.03-.97,0-.8-.11-1.58-.29-2.33-1.1-4.5-5.19-7.82-10.03-7.77-4.84.05-8.85,3.46-9.86,7.98-.17.75-.25,1.53-.24,2.34,0,.33.02.65.05.97.12,1.17.44,2.28.93,3.3,1.65,3.49,5.22,5.88,9.33,5.83,4.11-.04,7.63-2.51,9.21-6.03l-4.53.05c-1.16,1.31-2.84,2.14-4.73,2.16s-3.59-.78-4.77-2.06c-.83-.9-1.4-2.03-1.61-3.29l16.49-.17ZM229.35,107.87c.91-2.39,3.2-4.09,5.91-4.12s5.04,1.63,5.99,4l-11.9.13Z"/>
        <path class="cls-2" d="M199.93,105.63c0,.93-.09,1.84-.25,2.73-1.28,6.83-7.28,12-14.48,12-8.14,0-14.73-6.59-14.73-14.73s6.6-14.73,14.73-14.73c4.35,0,8.27,1.89,10.96,4.89l-2.75,2.75c-1.99-2.3-4.93-3.76-8.22-3.76-6,0-10.86,4.86-10.86,10.86s4.86,10.86,10.86,10.86c5.05,0,9.3-3.45,10.51-8.13h-9.53v-3.95h13.7c.03.4.05.81.05,1.22Z"/>
      </g>
      <path class="cls-1" d="M218.02,34.89h-62.49c1.45-12.41,11.99-22.03,24.79-22.03,7.65,0,14.49,3.44,19.07,8.86l9.09-9.14c-6.92-7.72-16.97-12.57-28.16-12.57-19.9,0-36.21,15.37-37.7,34.89h-.22C140.9,15.37,124.59,0,104.69,0c-11.18,0-21.24,4.86-28.16,12.57l9.09,9.14c4.58-5.42,11.42-8.86,19.07-8.86,12.79,0,23.34,9.63,24.79,22.03h-62.49c-.07.96-.11,1.94-.11,2.92,0,2.96.34,5.84.98,8.61,3.9,16.74,18.9,29.21,36.83,29.21s32.9-12.44,36.82-29.15h1.99c3.92,16.71,18.91,29.15,36.82,29.15s32.93-12.47,36.83-29.21c.65-2.76.98-5.65.98-8.61,0-.98-.04-1.96-.11-2.92ZM104.69,62.77c-10.76,0-19.92-6.81-23.43-16.35h46.86c-3.5,9.54-12.67,16.35-23.43,16.35ZM180.32,62.77c-10.76,0-19.93-6.81-23.43-16.35h46.86c-3.5,9.54-12.67,16.35-23.43,16.35Z"/>
    </g>
  </g>
</svg>