<?xml version="1.0" encoding="UTF-8"?>
<svg id="Layer_2" xmlns="http://www.w3.org/2000/svg" viewBox="0 0 509.62 67.59">
  <defs>
    <style>
      .cls-1 {
        fill: #00895e;
      }

      .cls-2 {
        fill: #002b46;
      }
    </style>
  </defs>
  <g id="Layer_1-2" data-name="Layer_1">
    <g>
      <g>
        <path class="cls-2" d="M270.07,51.91l-11.55-11.64v11.64h-5.31V15.39h5.31v21.55l10.46-10.41h6.72s-12.02,12.01-12.02,12.01l13.19,13.38h-6.81Z"/>
        <path class="cls-2" d="M350.46,51.96v-25.39h5.31v4.4c.45-1.35,1.28-2.45,2.49-3.28,1.21-.84,2.5-1.26,3.89-1.26.84,0,1.53.06,2.08.19l-1.21,5.17c-.43-.1-.57-.16-1.45-.14-1.61,0-2.98.65-4.11,1.96-1.13,1.3-1.69,3.12-1.69,5.43v12.92h-5.31Z"/>
        <path class="cls-2" d="M281.41,50.16c-1.75-1.2-2.98-2.74-3.7-4.61l4.59-2.01c.56,1.25,1.35,2.2,2.37,2.86,1.01.66,2.18.98,3.49.98s2.36-.23,3.23-.68c.87-.45,1.31-1.13,1.31-2.04s-.37-1.56-1.12-2.06c-.75-.5-1.91-.94-3.47-1.31l-2.86-.7c-1.91-.47-3.48-1.3-4.73-2.48-1.25-1.19-1.87-2.69-1.87-4.5,0-1.41.41-2.64,1.24-3.7.83-1.06,1.94-1.88,3.35-2.46,1.41-.58,2.93-.87,4.59-.87,2.22,0,4.17.44,5.86,1.34,1.69.89,2.9,2.18,3.65,3.86l-4.5,1.97c-.91-1.84-2.56-2.76-4.97-2.76-1.16,0-2.12.23-2.9.7-.78.47-1.17,1.08-1.17,1.83s.3,1.3.89,1.76c.59.45,1.47.84,2.62,1.15l3.51.89c2.34.59,4.11,1.49,5.32,2.69,1.2,1.2,1.8,2.68,1.8,4.43,0,1.5-.43,2.82-1.29,3.96-.86,1.14-2.04,2.02-3.54,2.65-1.5.62-3.15.94-4.97.94-2.75,0-5-.6-6.75-1.8Z"/>
        <path class="cls-2" d="M333.97,26.6c-7,0-12.68,5.68-12.68,12.68s5.68,12.68,12.68,12.68,12.68-5.68,12.68-12.68-5.68-12.68-12.68-12.68ZM333.97,46.43c-4.02,0-7.27-3.26-7.27-7.27s3.26-7.27,7.27-7.27,7.27,3.26,7.27,7.27-3.26,7.27-7.27,7.27Z"/>
        <path class="cls-2" d="M220.61,40.36c.03-.4.05-.8.04-1.21-.01-1-.14-1.97-.37-2.9-1.37-5.59-6.45-9.72-12.45-9.65s-10.99,4.29-12.24,9.91c-.21.93-.31,1.9-.3,2.9,0,.41.03.81.07,1.21.16,1.46.55,2.84,1.16,4.1,2.05,4.33,6.48,7.3,11.59,7.24s9.48-3.12,11.44-7.49l-5.62.06c-1.44,1.62-3.53,2.66-5.87,2.68s-4.45-.97-5.92-2.56c-1.03-1.11-1.74-2.52-2-4.09l20.47-.22ZM200.55,36.46c1.13-2.96,3.97-5.08,7.33-5.12s6.26,2.02,7.44,4.96l-14.77.16Z"/>
        <path class="cls-2" d="M248.9,40.36c.03-.4.05-.8.04-1.21-.01-1-.14-1.97-.37-2.9-1.37-5.59-6.45-9.72-12.45-9.65s-10.99,4.29-12.24,9.91c-.21.93-.31,1.9-.3,2.9,0,.41.03.81.07,1.21.16,1.46.55,2.84,1.16,4.1,2.05,4.33,6.48,7.3,11.59,7.24s9.48-3.12,11.44-7.49l-5.62.06c-1.44,1.62-3.53,2.66-5.87,2.68s-4.45-.97-5.92-2.56c-1.03-1.11-1.74-2.52-2-4.09l20.47-.22ZM228.84,36.46c1.13-2.96,3.97-5.08,7.33-5.12s6.26,2.02,7.44,4.96l-14.77.16Z"/>
        <path class="cls-2" d="M313.26,21.57c.64-.63,1.68-.94,3.09-.94,1.16,0,2.11.16,2.85.48v-4.73c-1.16-.39-2.48-.58-3.96-.58-2.42,0-4.39.73-5.94,2.2-1.54,1.47-2.32,3.5-2.32,6.11v2.44h-5.02v4.73h5.02v20.7h5.32v-20.7h6.91v-4.73h-6.91v-1.81c0-1.48.32-2.54.96-3.16Z"/>
        <path class="cls-2" d="M192.3,33.67c0,1.16-.11,2.29-.31,3.38-1.59,8.49-9.03,14.91-17.98,14.91-10.1,0-18.29-8.19-18.29-18.29s8.19-18.29,18.29-18.29c5.41,0,10.26,2.35,13.61,6.07l-3.41,3.41c-2.47-2.86-6.13-4.67-10.2-4.67-7.44,0-13.48,6.03-13.48,13.48s6.03,13.48,13.48,13.48c6.27,0,11.55-4.29,13.05-10.09h-11.84v-4.9h17.01c.04.5.06,1.01.06,1.52Z"/>
        <path class="cls-2" d="M481.74,51.91l-11.55-11.64v11.64h-5.31V15.39h5.31v21.55l10.46-10.41h6.72s-12.02,12.01-12.02,12.01l13.19,13.38h-6.81Z"/>
        <path class="cls-2" d="M493.08,50.16c-1.75-1.2-2.98-2.74-3.7-4.61l4.59-2.01c.56,1.25,1.35,2.2,2.37,2.86,1.01.66,2.18.98,3.49.98s2.36-.23,3.23-.68c.87-.45,1.31-1.13,1.31-2.04s-.37-1.56-1.12-2.06c-.75-.5-1.91-.94-3.47-1.31l-2.86-.7c-1.91-.47-3.48-1.3-4.73-2.48-1.25-1.19-1.87-2.69-1.87-4.5,0-1.41.41-2.64,1.24-3.7.83-1.06,1.94-1.88,3.35-2.46,1.41-.58,2.93-.87,4.59-.87,2.22,0,4.17.44,5.86,1.34,1.69.89,2.9,2.18,3.65,3.86l-4.5,1.97c-.91-1.84-2.56-2.76-4.97-2.76-1.16,0-2.12.23-2.9.7-.78.47-1.17,1.08-1.17,1.83s.3,1.3.89,1.76c.59.45,1.47.84,2.62,1.15l3.51.89c2.34.59,4.11,1.49,5.32,2.69,1.2,1.2,1.8,2.68,1.8,4.43,0,1.5-.43,2.82-1.29,3.96-.86,1.14-2.04,2.02-3.54,2.65-1.5.62-3.15.94-4.97.94-2.75,0-5-.6-6.75-1.8Z"/>
        <path class="cls-2" d="M432.28,40.36c.03-.4.05-.8.04-1.21-.01-1-.14-1.97-.37-2.9-1.37-5.59-6.45-9.72-12.45-9.65s-10.99,4.29-12.24,9.91c-.21.93-.31,1.9-.3,2.9,0,.41.03.81.07,1.21.16,1.46.55,2.84,1.16,4.1,2.05,4.33,6.48,7.3,11.59,7.24s9.48-3.12,11.44-7.49l-5.62.06c-1.44,1.62-3.53,2.66-5.87,2.68s-4.45-.97-5.92-2.56c-1.03-1.11-1.74-2.52-2-4.09l20.47-.22ZM412.22,36.46c1.13-2.96,3.97-5.08,7.33-5.12s6.26,2.02,7.44,4.96l-14.77.16Z"/>
        <path class="cls-2" d="M460.56,40.36c.03-.4.05-.8.04-1.21-.01-1-.14-1.97-.37-2.9-1.37-5.59-6.45-9.72-12.45-9.65s-10.99,4.29-12.24,9.91c-.21.93-.31,1.9-.3,2.9,0,.41.03.81.07,1.21.16,1.46.55,2.84,1.16,4.1,2.05,4.33,6.48,7.3,11.59,7.24s9.48-3.12,11.44-7.49l-5.62.06c-1.44,1.62-3.53,2.66-5.87,2.68s-4.45-.97-5.92-2.56c-1.03-1.11-1.74-2.52-2-4.09l20.47-.22ZM440.51,36.46c1.13-2.96,3.97-5.08,7.33-5.12s6.26,2.02,7.44,4.96l-14.77.16Z"/>
        <path class="cls-2" d="M403.97,33.67c0,1.16-.11,2.29-.31,3.38-1.59,8.49-9.03,14.91-17.98,14.91-10.1,0-18.29-8.19-18.29-18.29s8.19-18.29,18.29-18.29c5.41,0,10.26,2.35,13.61,6.07l-3.41,3.41c-2.47-2.86-6.13-4.67-10.2-4.67-7.44,0-13.48,6.03-13.48,13.48s6.03,13.48,13.48,13.48c6.27,0,11.55-4.29,13.05-10.09h-11.84v-4.9h17.01c.04.5.06,1.01.06,1.52Z"/>
      </g>
      <path class="cls-1" d="M135.08,31.18h-55.85c1.29-11.09,10.72-19.69,22.15-19.69,6.83,0,12.95,3.07,17.04,7.92l8.12-8.17c-6.19-6.9-15.17-11.24-25.17-11.24-17.79,0-32.36,13.74-33.7,31.18h-.2C66.16,13.74,51.58,0,33.8,0,23.8,0,14.82,4.34,8.63,11.24l8.12,8.17c4.09-4.84,10.21-7.92,17.04-7.92,11.44,0,20.86,8.6,22.15,19.69H.1c-.07.86-.1,1.73-.1,2.61,0,2.65.3,5.22.88,7.69,3.48,14.96,16.9,26.1,32.92,26.1s29.41-11.12,32.91-26.06h1.78c3.5,14.93,16.9,26.06,32.91,26.06s29.43-11.14,32.92-26.1c.58-2.47.88-5.05.88-7.69,0-.88-.03-1.75-.1-2.61ZM33.8,56.1c-9.61,0-17.81-6.08-20.94-14.61h41.88c-3.13,8.53-11.33,14.61-20.94,14.61ZM101.39,56.1c-9.61,0-17.81-6.08-20.94-14.61h41.88c-3.13,8.53-11.33,14.61-20.94,14.61Z"/>
    </g>
  </g>
</svg>